<svg width="1366" height="450" viewBox="0 0 1366 450" fill="none" xmlns="http://www.w3.org/2000/svg">
<path d="M-283 451.41C-283 321.75 -283 162.08 -283 32.42C-280.34 31.79 -277.43 31.66 -275.06 30.46C-266.47 26.1 -258.06 21.39 -249.47 16.75C-246.54 19.06 -243.65 21.35 -239.81 24.38C-249.3 24.25 -251.15 25.39 -250.41 30.05C-233.35 29.06 -216.29 28.07 -199.22 27.07C-199.1 26.57 -198.97 26.08 -198.85 25.58C-200.26 24.52 -201.68 23.47 -203.09 22.41C-203.14 21.96 -203.2 21.5 -203.25 21.05C-201.38 20.82 -199.5 20.34 -197.64 20.42C-195.05 20.53 -191.91 22.16 -190 21.18C-184.11 18.16 -177.5 19.76 -171.59 17.49C-170.25 16.97 -168.36 16.54 -167.2 17.08C-159.76 20.58 -151.89 18.88 -144.21 19.44C-141.67 19.63 -139.26 21.06 -136.71 21.52C-131.58 22.44 -126.35 23.9 -121.55 21.57C-119.17 22.73 -116.69 23.38 -114.18 23.75C-112.56 23.99 -110.87 23.9 -109.22 23.83C-105.27 23.68 -101.33 23.46 -97.38 23.28C-97.34 22.79 -97.29 22.3 -97.25 21.81C-98.68 20.65 -100.11 19.49 -102.19 17.81C-99.98 17.65 -98.57 17.59 -97.15 17.45C-92.99 17.04 -88.9 15.48 -85.1 19.31C-83.3 21.12 -80.22 22.22 -77.59 22.55C-71.9 23.27 -66.35 20.91 -60.29 22.55C-55.08 23.96 -49.17 23.12 -43.6 22.79C-34.56 22.24 -25.28 24.32 -16.5 20.52C-15.8 20.22 -14.81 20.55 -13.96 20.59C-13.98 20.75 -13.99 20.9 -14.01 21.06C-14.77 21.24 -15.52 21.43 -16.28 21.61C-16.17 22.09 -16.07 22.58 -15.96 23.06C-13.98 22.39 -12.02 21.67 -10.02 21.09C-9.17999 20.85 -8.23001 20.8 -7.35001 20.9C-4.78 21.22 -2.14001 22.26 0.329987 21.93C5.90997 21.19 11.41 19.8 16.95 18.68C17.02 19.06 17.09 19.44 17.16 19.82C13.34 20.26 9.53 20.7 5.70999 21.14C5.75998 21.68 5.81 22.22 5.85999 22.76C14.3 22.28 22.74 21.8 31.18 21.32C31.19 21.05 31.21 20.79 31.22 20.52C28.63 20.2 26.04 19.88 23.01 19.5C28.32 18.4 33.03 17.1 37.83 16.51C42.89 15.89 48.06 16.09 53.15 15.62C54.44 15.5 55.61 14.22 56.84 13.48L56.4 12.3C31 14.27 5.30002 11.61 -20.55 18.87C-19.4 17.02 -18.89 16.21 -17.92 14.67C-22.72 15.17 -26.68 15.58 -30.63 16C-30.72 15.46 -30.8 14.92 -30.89 14.38C-28.16 13.93 -25.42 13.08 -22.71 13.15C-19.4 13.24 -16.09 14.65 -12.82 14.52C-6.70001 14.28 -0.630005 13.15 5.48999 12.74C10.39 12.41 15.33 12.58 20.25 12.55C24.92 12.53 29.6 12.55 33.72 12.55C34.85 11.4 35.82 10.41 37.19 9.02H22.84C25.69 6 20.87 6.89 19.97 5.01C32.27 3.31 44.07 1.68 56.29 0C55.47 1.8 54.89 3.09 54.3 4.38C54.12 4.06 53.94 3.74 53.76 3.43C49.77 5.4 45.77 7.37 41.78 9.34C41.94 9.84 42.1 10.34 42.27 10.84C50.52 10.25 58.77 9.66 67.03 9.07C67.09 9.43 67.16 9.78 67.22 10.14C66.22 10.39 65.22 10.64 64.22 10.89C68.33 11.42 72.25 10.71 76.2 10.24C84.24 9.27 91.73 4.95 100.21 6.48C103.98 7.16 107.86 7.29 111.69 7.66C111.66 7.84 111.64 8.01 111.61 8.19C108 8.48 104.39 8.77 100.78 9.05C100.84 9.58 100.9 10.11 100.96 10.64C107.1 9.62 113.2 8.27 119.38 7.7C123.04 7.36 127.82 6.96 130.29 8.89C134.32 12.04 137.78 13.69 142.35 10.6H137.67C137.66 10.28 137.65 9.96 137.63 9.65C142.09 9.36 146.56 9.06 151.52 8.74C150.46 7.14 149.99 6.43 148.96 4.87C153.67 7.02 157.45 8.75 160.37 10.09C164.69 2.63 170.09 8.76 173.93 7.01C171.69 7.57 169.46 8.13 167.22 8.69C167.3 9.24 167.38 9.79 167.46 10.34C180.17 9.31 192.87 8.28 206.6 7.16C200.48 6.22 195.45 5.44 190.42 4.67C194.11 3.74 197.75 3.58 201.36 3.8C203.55 3.93 206.37 3.94 207.76 5.23C212.89 9.97 218.97 11.35 225.58 11.71C231.83 12.05 238.08 12.5 244.33 12.9C244.31 13.44 244.29 13.99 244.27 14.53H217.28C218.03 16.06 218.95 16.77 219.89 16.8C230.79 17.18 241.69 17.42 252.59 17.83C253.4 17.86 254.17 18.89 254.95 19.45C254.77 19.79 254.6 20.13 254.42 20.47H223.1C224.18 26 227.99 26.8 231.68 26.49C233.76 26.32 237.06 27.57 238.2 23.85C238.33 23.44 241.31 23.92 242.96 23.96C254.24 24.23 265.56 23.93 276.77 24.96C283.05 25.54 289.41 24.86 295.79 27.39C301.71 29.74 308.67 29.51 315.17 30.37C317.64 30.7 320.11 30.97 322.59 31.18C328.21 31.67 334.34 33.71 339.33 32.14C344.89 30.39 349.43 31.87 354.41 32.54C356.2 32.78 357.96 33.26 359.75 33.44C366.99 34.15 374.24 34.83 381.5 35.43C385.82 35.79 390.15 35.96 394.47 36.22C394.57 35.81 394.67 35.4 394.76 34.99C391.87 34.11 388.58 31.9 386.18 32.63C381.87 33.94 378.44 32.63 374.7 31.49C367.68 29.34 360.65 27.24 353.62 25.17C350.25 24.18 346.84 23.31 343.45 22.38C357.21 20.68 369.99 25.2 382.83 29.3C382.95 28.79 383.06 28.28 383.18 27.77C381.08 26.92 378.97 26.08 376.87 25.23C376.93 25.05 376.99 24.87 377.05 24.69C380.43 25.32 383.8 25.95 387.18 26.57C386.86 26.98 386.55 27.39 386.23 27.8C386.88 28.41 387.44 29.37 388.19 29.57C396.03 31.6 403.9 33.57 411.79 35.4C413.2 35.73 414.77 35.36 416.27 35.35C419.21 35.33 422.15 35.35 425.08 35.35C425.08 35.61 425.08 35.87 425.08 36.12L419.86 36.72C419.85 37.15 419.84 37.58 419.83 38.01C429.26 38.61 438.68 39.22 448.11 39.82C440.39 37.51 432.68 35.87 425 34.07C424.38 33.93 424.02 32.7 423.54 31.97L423.45 32.04C428.2 32.24 432.96 32.39 437.71 32.64C441.19 32.82 444.69 32.91 448.12 33.42C459.78 35.16 471.43 36.95 483.03 39.03C484.9 39.37 486.38 41.98 488.25 42.3C494.4 43.34 500.64 43.85 506.85 44.48C516.71 45.48 526.58 46.4 536.44 47.35C536.46 47.1 536.49 46.85 536.51 46.6C526.03 44.37 515.54 42.14 503.76 39.64C513.16 38.19 521.25 34.26 528.87 40.52H523.73C530.63 42.49 537.51 44.04 544.37 45.65C549.65 46.89 554.85 48.74 560.2 49.37C572.08 50.77 584.02 51.67 595.95 52.54C597.53 52.66 599.21 51.42 600.84 50.81C599.83 49.62 598.82 48.42 597.81 47.23C597.87 46.96 597.94 46.69 598 46.42C603.4 49.16 608.79 51.89 614.19 54.63L614.6 53.92C613.92 53.31 613.25 52.71 612.35 51.91C617.87 51.32 618.83 48.29 616.81 43.28C622.27 46.83 627.05 50.62 631.94 54.25C633.28 55.25 635 56.31 636.51 56.27C637.31 56.25 638.06 53.94 638.84 52.66C638.95 52.88 639.06 53.1 639.17 53.33C640.18 52.7 641.19 52.07 642.21 51.44C639.84 48.84 642.75 47.21 643.38 45.17L643.25 45.28C644.58 46.12 645.91 46.95 647.55 47.99C647.83 46.46 648 45.56 648.33 43.81C650.21 48.79 651.8 53.01 653.83 58.38C659.95 58.84 667.68 59.42 676.24 60.06C676.24 55.43 676.22 50.71 676.24 45.99C676.26 43.42 676.75 41.36 680.18 41.72C683.76 42.1 683.4 44.71 683.54 47.07C683.63 48.71 683.56 50.37 683.56 51.96C693.16 49.38 702.21 46.94 710.94 44.59C712.27 46.34 713.29 47.67 714.6 49.38C716.25 47.08 717.42 45.45 719.49 42.58C719.05 46.43 718.78 48.76 718.51 51.1C715.22 51.88 710.58 49.76 708.84 55.43C715.56 55.83 721.6 56.28 727.64 56.45C728.59 56.48 729.5 55.01 730.57 54.69C731.66 54.37 733.11 54.23 734.06 54.69C735.31 55.3 736.18 57.35 737.32 57.44C741.67 57.78 746.05 57.58 750.04 57.58C750.86 58.75 751.82 60.14 753.76 62.94C753.91 54.22 759.96 60.77 762.31 57.11C760.42 54.97 758.45 52.73 755.39 49.27C758.09 49.22 759.92 49.11 761.75 49.17C764.81 49.28 769.58 50.78 770.59 49.43C773.07 46.08 775.64 48.34 778 47.96C783.13 47.14 788.33 46.42 793.51 46.36C798.37 46.3 803.25 47.17 808.12 47.58C812.04 47.91 815.97 48.12 819.89 48.44C825.01 48.85 830.13 49.28 835.24 49.78C838.41 50.09 840.93 51.06 839.08 55.62C841.24 55.34 843 55.12 844.71 54.89C845.06 55.79 845.41 56.68 845.25 56.29C852.76 54.4 859.69 52.66 867.81 50.62C864.82 49.05 863.12 48.16 861.41 47.26C866.28 46.21 872.44 44.36 875.13 46.63C879.51 50.33 882.9 48.31 886.83 47.95C888.25 47.82 889.68 47.76 891.74 47.62C890.24 48.61 889.33 49.22 888.07 50.05C889.36 50.78 890.32 51.32 891.27 51.86C887.63 52.37 884.24 52.85 880.15 53.42C881.26 54.43 881.68 55.15 882.18 55.22C887.82 56.04 893.58 52.92 899.25 55.76C899.82 56.04 901.18 54.71 902.19 54.15C902.99 53.71 903.81 52.99 904.65 52.96C908.42 52.83 912.19 52.9 915.84 52.9C915.64 53.58 915.3 54.78 914.95 56C915.78 56.24 916.09 56.4 916.41 56.41C925.21 56.86 933.84 53 942.78 55.53C943.97 55.87 945.63 54.24 947.15 53.87C948.14 53.62 949.29 53.95 950.36 54.09C951.97 54.3 954.29 55.38 955.05 54.7C959.82 50.41 965.99 54.23 971.51 51.13C976.13 48.54 983.06 50.07 988.97 49.77C988.97 49.95 988.97 50.14 988.98 50.32C985.01 50.93 981.03 51.54 977.06 52.16C977.12 52.64 977.18 53.11 977.24 53.59C981.43 53.31 985.99 53.95 989.73 52.5C993.93 50.86 997.39 47.34 1002.49 48.81C1002.71 48.87 1003.04 48.5 1003.33 48.35C1004.85 47.56 1006.34 46.19 1007.91 46.09C1012.8 45.76 1017.72 46.04 1022.62 45.81C1024.38 45.73 1026.1 44.85 1027.84 44.33C1022.15 43.44 1016.75 43.5 1011.35 43.41C1009.79 43.38 1007.48 43.48 1006.8 42.56C1002.89 37.33 998.18 37.64 993.76 39.69C993.09 37.95 992.5 36.42 991.94 34.95C999.29 34.12 1006.96 33.28 1014.62 32.36C1016.25 32.16 1017.82 31.54 1019.44 31.29C1020.88 31.07 1022.42 30.78 1023.8 31.06C1026.58 31.63 1029.29 32.57 1030.79 33C1028.08 33.86 1024.07 35.12 1020.07 36.39L1020.25 37.27C1021.89 37.46 1023.53 37.65 1025.2 37.85C1020.34 38.19 1015.56 38.52 1010.79 38.86C1010.82 39.38 1010.85 39.9 1010.88 40.43C1012.16 40.53 1013.44 40.7 1014.73 40.71C1020.84 40.73 1027.31 39.44 1032.98 41.02C1040.05 42.98 1046.1 41.87 1052.43 39.44C1061.24 36.06 1070.6 35.87 1079.36 37.98C1084.02 39.1 1087.67 39.06 1092.14 38.26C1095.68 37.63 1100.17 35.54 1103.44 40.97C1104.63 42.94 1110 42.4 1113.47 43C1113.54 42.52 1113.61 42.05 1113.67 41.57C1112.69 41.33 1111.7 41.08 1110.73 40.84C1114.72 37.45 1121.17 42.67 1124.87 36.41C1125.31 36.64 1126.22 37.32 1127.24 37.62C1128.91 38.11 1130.65 38.59 1132.37 38.64C1134.8 38.71 1137.26 38.14 1139.69 38.29C1147.81 38.79 1155.5 40.63 1164.14 39.23C1177.75 37.03 1191.88 38.03 1205.8 37.79C1207.53 37.76 1209.27 38.44 1211.01 38.79C1210.99 39.25 1210.97 39.71 1210.96 40.18H1196.43C1196.44 40.94 1196.45 41.69 1196.47 42.45C1203.69 42.45 1210.91 42.56 1218.13 42.39C1220.79 42.33 1223.43 41.61 1226.08 41.19C1228.36 40.83 1230.63 40.38 1232.92 40.19C1233.29 40.16 1234.11 41.31 1234.07 41.87C1234.03 42.38 1233.13 43.21 1232.57 43.24C1223.46 43.69 1214.35 44.11 1205.23 44.37C1199.78 44.53 1194.33 44.4 1188.56 44.4C1190.65 51.1 1193.06 51.85 1203.65 50.09C1203.31 49.4 1202.99 48.74 1202.43 47.58C1221.51 48.27 1240.34 46.32 1259.63 47.77C1258.79 48.29 1258.32 48.59 1257.18 49.29C1269.61 50.35 1281.4 51.81 1293.22 52.21C1301.42 52.48 1309.67 51.29 1317.9 50.73C1322.03 50.45 1326.16 49.99 1330.29 49.91C1332.88 49.86 1335.51 50.19 1338.08 50.63C1344.32 51.71 1350.53 52.96 1356.75 54.13L1357.24 51.5C1349.21 50.15 1341.12 49.07 1333.16 47.38C1325.16 45.69 1317.29 43.4 1310.96 41.78C1314.75 41.78 1320.29 41.28 1325.71 41.92C1331.44 42.59 1337.07 44.26 1342.71 45.64C1344.96 46.19 1347.11 47.13 1349.31 47.89L1349.77 46.09C1347.86 45.39 1345.96 44.68 1344.05 43.98C1347.35 44.39 1350.27 43.75 1353.49 46.99C1356.2 49.72 1362.46 49.08 1367.18 49.61C1372.31 50.19 1377.47 50.39 1382.62 50.76C1382.68 50.16 1382.75 49.55 1382.81 48.95C1379.39 48.55 1375.96 48.14 1372.81 47.77C1377.65 47.25 1382.86 44.35 1387.74 48.55C1388.23 48.97 1389.36 48.66 1390.19 48.66C1399.88 48.71 1409.64 48.01 1419.24 48.96C1433.85 50.41 1448.33 53.19 1462.91 55.04C1474.76 56.54 1486.68 57.52 1498.57 58.66C1499.76 58.77 1500.99 58.47 1502.2 58.36C1502.2 58.2 1502.2 58.04 1502.2 57.88C1492.07 56.17 1481.94 54.45 1471.81 52.74C1471.86 52.44 1471.91 52.13 1471.96 51.83H1493.98C1493.98 52.28 1493.97 52.73 1493.96 53.18C1490.18 52.94 1486.4 52.71 1482.63 52.47C1484.16 53.77 1485.82 54.39 1487.54 54.66C1494.25 55.7 1500.97 56.66 1507.69 57.6C1513.05 58.35 1518.4 59.26 1523.79 59.63C1527.13 59.86 1530.56 58.82 1533.91 59.05C1543.4 59.71 1552.86 60.77 1562.34 61.6C1565.01 61.84 1565.58 60.41 1564.69 58.12C1564.65 58.01 1564.51 57.95 1564.41 57.86C1564.55 57.8 1564.68 57.74 1565.72 57.28C1567.18 57.83 1569.88 58.08 1571.35 59.56C1574.79 63.02 1577.77 59.45 1580.92 59.37C1581.12 59.37 1581.21 56.01 1581.43 54.22C1581.48 53.78 1581.85 53.38 1582.64 51.89C1586.45 54.42 1590.07 56.82 1593.57 59.13C1599.59 55.88 1593.34 51.57 1593.6 47.23C1599.52 51.4 1599.99 52.89 1597.35 58.07C1595.87 60.96 1597.19 63.04 1599.78 63.18C1603.74 63.39 1607.91 62.81 1609.71 56.22C1606.9 57.56 1605.18 58.37 1603.98 58.94C1603.48 57.39 1603.25 54.88 1601.98 53.12C1599.34 49.47 1601.03 47.67 1603.03 46.4C1605.15 47.65 1606.72 48.22 1607.78 49.3C1608.84 50.38 1609.47 51.92 1610.17 53.32C1610.78 54.55 1611.22 55.87 1611.74 57.16C1612.11 56.97 1612.48 56.79 1612.84 56.6C1613.06 55.7 1613.28 54.79 1613.55 53.64C1613.93 55.11 1614.23 56.29 1614.75 58.3C1617.39 56.54 1619.53 55.1 1622.14 53.36C1621.09 55.24 1620.41 56.73 1619.48 58.05C1618.77 59.05 1617.75 59.83 1616.86 60.7C1618.5 62.02 1619.96 63.88 1621.83 64.5C1623.95 65.2 1626.45 64.67 1628.78 64.86C1639.93 65.76 1639.89 65.77 1641.21 54.54C1641.34 53.45 1642.23 51.75 1643.02 51.59C1644.19 51.35 1645.66 52.1 1646.89 52.66C1647.71 53.04 1648.35 53.82 1649.06 54.42V451.41C1648.06 451.38 -103.99 451.4 -282.94 451.41H-283ZM792.5 60.98C787.09 55.68 778.47 53.67 766.16 55.15C770.44 56.45 773.32 57.52 776.3 58.16C779.31 58.81 782.42 59.02 785.53 59.42C784.7 60.5 784.11 61.27 782.76 63.03C786.73 62.19 789.49 61.61 792.51 60.98H792.5ZM705.05 58.97C709.2 65.01 724.5 67 727.42 62.43C720.22 61.32 712.85 60.18 705.05 58.97ZM768.09 58.48C764.5 59.11 760.91 59.75 756.82 60.47C761.9 64.7 762.38 64.63 768.09 58.48ZM1069.9 42.02L1069.85 41.67C1064.64 41.24 1059.44 40.82 1054.23 40.39C1054.21 40.93 1054.19 41.48 1054.17 42.02H1069.9Z" fill="#F29109"/>
<path d="M972.86 44.58C972.73 43.95 972.59 43.33 972.46 42.7C970.59 43.2 968.75 43.96 966.85 44.15C960.96 44.74 954.25 47.07 949.34 45.08C942.64 42.37 937.56 43.14 931.99 46.19C944.98 46.43 946.74 46.67 946.88 48.71C955.58 47.33 964.23 45.95 972.88 44.57L972.86 44.58ZM729.68 51.48C733.72 50.36 737.17 50.54 739.8 54.27C740.19 54.82 741.35 55.15 742.08 55.05C743.34 54.88 744.55 54.3 745.78 53.89C745.34 52.84 745.17 51.53 744.42 50.79C739.42 45.75 734.61 50.35 729.67 51.49L729.68 51.48ZM766.69 42.22C767.76 39.14 765.36 38.16 759.86 39.04C770.03 46.53 770.19 46.58 773.55 42.9C771.32 42.68 769.2 42.47 766.69 42.22ZM-227.32 22.58C-222.51 23.2 -217.71 23.83 -212.24 24.54C-217 18.18 -222.31 21.55 -227.32 22.58ZM1163.93 35.14C1169.77 35.66 1175.61 36.18 1181.44 36.7C1181.47 36.24 1181.5 35.78 1181.53 35.32C1175.8 32.32 1169.84 34.38 1163.92 35.14H1163.93ZM295.89 20.43C295.83 20.78 295.78 21.13 295.72 21.47C303.55 22.75 311.37 24.04 319.2 25.32C319.24 25.06 319.28 24.8 319.32 24.53L295.89 20.42V20.43ZM269.01 19.94C269.24 19.18 269.48 18.42 269.71 17.66C266.34 16.93 262.97 16.2 259.6 15.47C259.43 16.24 259.27 17.02 259.1 17.79C262.4 18.51 265.71 19.22 269.01 19.94ZM-200.37 9.61C-200.53 10.13 -200.68 10.64 -200.84 11.16C-198.15 12.71 -195.46 14.26 -193.36 15.47C-192.71 14 -192.39 13.26 -191.81 11.93C-194.62 11.17 -197.5 10.39 -200.37 9.61ZM-105.75 15.45C-108.82 14.57 -111.53 13.8 -114.47 12.95C-113.96 13.75 -113.53 14.44 -112.99 15.28C-114.19 15.37 -115.12 15.45 -116.22 15.53C-112.6 18.02 -109.25 18.66 -105.74 15.44L-105.75 15.45ZM630.15 38.37C629.41 38.75 628.67 39.13 627.92 39.52C629.31 41.85 630.71 44.19 632.1 46.52C632.64 46.23 633.17 45.93 633.71 45.64L630.14 38.38L630.15 38.37Z" fill="white"/>
<path d="M792.5 60.98C789.48 61.62 786.72 62.2 782.75 63.03C784.1 61.27 784.69 60.5 785.52 59.42C782.41 59.01 779.31 58.8 776.29 58.16C773.32 57.52 770.44 56.45 766.15 55.15C778.46 53.68 787.08 55.68 792.49 60.98H792.5Z" fill="white"/>
<path d="M705.05 58.96C712.85 60.16 720.22 61.3 727.42 62.42C724.5 67 709.2 65 705.05 58.96Z" fill="white"/>
<path d="M768.09 58.47C762.38 64.62 761.9 64.69 756.82 60.46C760.91 59.74 764.5 59.1 768.09 58.47Z" fill="white"/>
<path d="M972.86 44.58C964.21 45.96 955.56 47.33 946.86 48.72C946.72 46.69 944.96 46.44 931.97 46.2C937.54 43.15 942.62 42.38 949.32 45.09C954.24 47.08 960.94 44.75 966.83 44.16C968.73 43.97 970.57 43.21 972.44 42.71C972.57 43.34 972.71 43.96 972.84 44.59L972.86 44.58Z" fill="#F29109"/>
<path d="M729.68 51.48C734.61 50.34 739.42 45.74 744.43 50.78C745.17 51.53 745.35 52.84 745.79 53.88C744.56 54.29 743.35 54.88 742.09 55.04C741.36 55.14 740.19 54.81 739.81 54.26C737.18 50.53 733.73 50.36 729.69 51.47L729.68 51.48Z" fill="#F29109"/>
<path d="M643.36 45.16C641.33 45.51 639.29 45.87 637.12 46.24C636.74 44.42 635.95 41.48 635.67 38.5C635.62 37.94 637.61 37.19 638.57 36.59C640.23 39.71 641.72 42.49 643.22 45.28L643.36 45.16Z" fill="#F29109"/>
<path d="M766.7 42.22C769.21 42.47 771.33 42.68 773.56 42.9C770.2 46.58 770.03 46.53 759.87 39.04C765.37 38.15 767.77 39.14 766.7 42.22Z" fill="#F29109"/>
<path d="M-227.32 22.58C-222.3 21.54 -217 18.17 -212.24 24.54C-217.71 23.83 -222.52 23.21 -227.32 22.58Z" fill="#F29109"/>
<path d="M1163.94 35.14C1169.85 34.37 1175.82 32.32 1181.55 35.32C1181.52 35.78 1181.49 36.24 1181.46 36.7C1175.62 36.18 1169.78 35.66 1163.95 35.14H1163.94Z" fill="#F29109"/>
<path d="M295.9 20.43L319.33 24.54C319.29 24.8 319.25 25.06 319.21 25.33C311.38 24.05 303.56 22.76 295.73 21.48C295.79 21.13 295.84 20.78 295.9 20.44V20.43Z" fill="#F29109"/>
<path d="M269.01 19.94C265.71 19.22 262.4 18.51 259.1 17.79C259.27 17.02 259.43 16.24 259.6 15.47C262.97 16.2 266.34 16.93 269.71 17.66C269.48 18.42 269.24 19.18 269.01 19.94Z" fill="#F29109"/>
<path d="M-200.37 9.61C-197.5 10.39 -194.62 11.16 -191.81 11.93C-192.39 13.26 -192.71 14 -193.36 15.47C-195.46 14.26 -198.15 12.71 -200.84 11.16C-200.68 10.64 -200.53 10.13 -200.37 9.61Z" fill="#F29109"/>
<path d="M-105.75 15.44C-109.26 18.66 -112.62 18.02 -116.23 15.53C-115.13 15.44 -114.2 15.37 -113 15.28C-113.54 14.43 -113.97 13.75 -114.48 12.95C-111.54 13.79 -108.83 14.57 -105.76 15.45L-105.75 15.44Z" fill="#F29109"/>
<path d="M423.51 31.97C417.17 31.57 410.83 31.17 404.49 30.77C404.56 30.2 404.62 29.63 404.69 29.06C410.92 30.06 417.15 31.06 423.4 32.05C423.42 32.04 423.51 31.97 423.51 31.97Z" fill="#F29109"/>
<path d="M630.15 38.37L633.72 45.63C633.18 45.92 632.65 46.22 632.11 46.51C630.72 44.18 629.32 41.84 627.93 39.51C628.67 39.13 629.41 38.75 630.16 38.36L630.15 38.37Z" fill="#F29109"/>
</svg>
